<svg width="38" height="20" viewBox="0 0 38 20" fill="none" xmlns="http://www.w3.org/2000/svg">
<path d="M12.2747 13.1997H10.6274V19.7514H12.2747V13.1997Z" fill="#F7F7F7"></path>
<path d="M25.5894 15.0761C25.1647 14.8452 24.6892 14.7239 24.206 14.7233C23.9771 14.7233 23.7504 14.7685 23.5389 14.8564C23.3274 14.9442 23.1353 15.073 22.9734 15.2353C22.8115 15.3977 22.6831 15.5904 22.5955 15.8025C22.5079 16.0146 22.4628 16.2419 22.4628 16.4715C22.4628 16.7011 22.5079 16.9284 22.5955 17.1405C22.6831 17.3526 22.8115 17.5453 22.9734 17.7076C23.1353 17.87 23.3274 17.9988 23.5389 18.0866C23.7504 18.1745 23.9771 18.2197 24.206 18.2197C24.6886 18.2218 25.164 18.1033 25.5894 17.8749V19.6311C25.1023 19.7818 24.5958 19.8601 24.0861 19.8636C23.189 19.8636 22.3287 19.5062 21.6943 18.8701C21.06 18.2339 20.7036 17.3711 20.7036 16.4715C20.7036 15.5718 21.06 14.709 21.6943 14.0729C22.3287 13.4367 23.189 13.0793 24.0861 13.0793C24.5961 13.08 25.103 13.1584 25.5894 13.3119V15.0761Z" fill="var(--path-color-contrast, var(--hbr-color-neutral-contrast-icon, #F7F7F7))"></path>
<path d="M8.36334 15.0761C7.93919 14.8436 7.46336 14.7222 6.97996 14.7233C6.75104 14.7233 6.52436 14.7685 6.31286 14.8564C6.10137 14.9442 5.9092 15.073 5.74732 15.2353C5.58545 15.3977 5.45705 15.5904 5.36944 15.8025C5.28184 16.0146 5.23675 16.2419 5.23675 16.4715C5.23675 16.7011 5.28184 16.9284 5.36944 17.1405C5.45705 17.3526 5.58545 17.5453 5.74732 17.7076C5.9092 17.87 6.10137 17.9988 6.31286 18.0866C6.52436 18.1745 6.75104 18.2197 6.97996 18.2197C7.46266 18.2232 7.93846 18.1046 8.36334 17.8749V19.6311C7.87634 19.7822 7.3698 19.8606 6.86002 19.8636C5.96293 19.8636 5.10258 19.5062 4.46824 18.8701C3.83391 18.2339 3.47754 17.3711 3.47754 16.4715C3.47754 15.5718 3.83391 14.709 4.46824 14.0729C5.10258 13.4367 5.96293 13.0793 6.86002 13.0793C7.37004 13.0792 7.87706 13.1577 8.36334 13.3119V15.0761Z" fill="var(--path-color-contrast, var(--hbr-color-neutral-contrast-icon, #F7F7F7))"></path>
<path d="M30.7452 14.7556C30.4045 14.7524 30.0705 14.8508 29.7857 15.0383C29.5009 15.2258 29.278 15.494 29.1455 15.8087C29.0129 16.1235 28.9765 16.4707 29.0411 16.8062C29.1056 17.1417 29.2681 17.4504 29.5078 17.6931C29.7476 17.9358 30.0539 18.1016 30.3879 18.1695C30.7218 18.2373 31.0683 18.2041 31.3834 18.0741C31.6984 17.9441 31.9679 17.7231 32.1575 17.4393C32.3472 17.1554 32.4484 16.8214 32.4484 16.4797C32.4527 16.2535 32.4117 16.0287 32.3278 15.8186C32.2439 15.6085 32.1189 15.4175 31.9601 15.2567C31.8013 15.096 31.6119 14.9688 31.4033 14.8827C31.1946 14.7966 30.9708 14.7534 30.7452 14.7556ZM34.1916 16.4797C34.2043 17.1659 34.0131 17.8403 33.6422 18.4171C33.2713 18.9939 32.7375 19.4468 32.109 19.7183C31.4805 19.9898 30.7856 20.0674 30.1129 19.9414C29.4402 19.8154 28.8201 19.4914 28.3317 19.0106C27.8433 18.5299 27.5086 17.9143 27.3704 17.2421C27.2321 16.57 27.2965 15.8718 27.5554 15.2365C27.8143 14.6012 28.2559 14.0575 28.8239 13.6748C29.392 13.2921 30.0608 13.0877 30.7452 13.0876C31.1956 13.0757 31.6438 13.1549 32.0631 13.3204C32.4823 13.4858 32.8641 13.7342 33.1857 14.0507C33.5073 14.3672 33.762 14.7454 33.9349 15.1627C34.1077 15.58 34.195 16.0279 34.1916 16.4797Z" fill="var(--path-color-contrast, var(--hbr-color-neutral-contrast-icon, #F7F7F7))"></path>
<path d="M18.5268 14.691C18.1068 14.5745 17.6748 14.5072 17.2394 14.4905C16.5757 14.4905 16.2238 14.707 16.2238 15.0278C16.2238 15.3486 16.7036 15.5651 16.9755 15.6533L17.4313 15.7977C17.8569 15.8896 18.2402 16.1205 18.5209 16.4543C18.8016 16.7881 18.964 17.2058 18.9826 17.6421C18.9826 19.286 17.5352 19.8394 16.2798 19.8394C15.684 19.8335 15.0899 19.7744 14.5046 19.6629V18.1794C15.0116 18.3288 15.5357 18.4123 16.0639 18.428C16.8635 18.428 17.2633 18.1874 17.2633 17.8105C17.2633 17.4336 16.9355 17.2892 16.5277 17.1609L16.1758 17.0487C15.2562 16.76 14.4966 16.2467 14.4966 15.1321C14.4966 13.9051 15.4082 13.0872 16.8955 13.0872C17.4348 13.0957 17.9713 13.1657 18.4948 13.2957L18.5268 14.691Z" fill="var(--path-color-contrast, var(--hbr-color-neutral-contrast-icon, #F7F7F7))"></path>
<path d="M1.59928 6.15886C1.59928 5.94617 1.51503 5.7422 1.36507 5.59181C1.21511 5.44142 1.01172 5.35693 0.79964 5.35693C0.587562 5.35693 0.384171 5.44142 0.234209 5.59181C0.0842476 5.7422 0 5.94617 0 6.15886L0 7.883C0 8.09568 0.0842476 8.29965 0.234209 8.45004C0.384171 8.60043 0.587562 8.68492 0.79964 8.68492C1.01172 8.68492 1.21511 8.60043 1.36507 8.45004C1.51503 8.29965 1.59928 8.09568 1.59928 7.883V6.15886Z" fill="var(--path-color-contrast, var(--hbr-color-neutral-contrast-icon, #F7F7F7))"></path>
<path d="M6.12418 3.90544C6.12418 3.69276 6.03994 3.48878 5.88997 3.33839C5.74001 3.188 5.53662 3.10352 5.32454 3.10352C5.11246 3.10352 4.90907 3.188 4.75911 3.33839C4.60915 3.48878 4.5249 3.69276 4.5249 3.90544V7.91507C4.5249 8.12775 4.60915 8.33172 4.75911 8.48211C4.90907 8.6325 5.11246 8.71699 5.32454 8.71699C5.53662 8.71699 5.74001 8.6325 5.88997 8.48211C6.03994 8.33172 6.12418 8.12775 6.12418 7.91507V3.90544Z" fill="var(--path-color-contrast, var(--hbr-color-neutral-contrast-icon, #F7F7F7))"></path>
<path d="M10.6198 0.801925C10.6198 0.589241 10.5355 0.385269 10.3856 0.234878C10.2356 0.0844883 10.0322 0 9.82015 0C9.60807 0 9.40468 0.0844883 9.25472 0.234878C9.10476 0.385269 9.02051 0.589241 9.02051 0.801925V9.51885C9.02051 9.73153 9.10476 9.93551 9.25472 10.0859C9.40468 10.2363 9.60807 10.3208 9.82015 10.3208C10.0322 10.3208 10.2356 10.2363 10.3856 10.0859C10.5355 9.93551 10.6198 9.73153 10.6198 9.51885V0.801925Z" fill="var(--path-color-contrast, var(--hbr-color-neutral-contrast-icon, #F7F7F7))"></path>
<path d="M15.1125 3.90544C15.1125 3.69276 15.0282 3.48878 14.8783 3.33839C14.7283 3.188 14.5249 3.10352 14.3128 3.10352C14.1007 3.10352 13.8974 3.188 13.7474 3.33839C13.5974 3.48878 13.5132 3.69276 13.5132 3.90544V7.91507C13.5132 8.12775 13.5974 8.33172 13.7474 8.48211C13.8974 8.6325 14.1007 8.71699 14.3128 8.71699C14.5249 8.71699 14.7283 8.6325 14.8783 8.48211C15.0282 8.33172 15.1125 8.12775 15.1125 7.91507V3.90544Z" fill="var(--path-color-contrast, var(--hbr-color-neutral-contrast-icon, #F7F7F7))"></path>
<path d="M19.6086 6.15886C19.6086 5.94617 19.5243 5.7422 19.3743 5.59181C19.2244 5.44142 19.021 5.35693 18.8089 5.35693C18.5968 5.35693 18.3934 5.44142 18.2435 5.59181C18.0935 5.7422 18.0093 5.94617 18.0093 6.15886V7.883C18.0093 8.09568 18.0935 8.29965 18.2435 8.45004C18.3934 8.60043 18.5968 8.68492 18.8089 8.68492C19.021 8.68492 19.2244 8.60043 19.3743 8.45004C19.5243 8.29965 19.6086 8.09568 19.6086 7.883V6.15886Z" fill="var(--path-color-contrast, var(--hbr-color-neutral-contrast-icon, #F7F7F7))"></path>
<path d="M24.1012 3.90544C24.1012 3.69276 24.017 3.48878 23.867 3.33839C23.7171 3.188 23.5137 3.10352 23.3016 3.10352C23.0895 3.10352 22.8861 3.188 22.7362 3.33839C22.5862 3.48878 22.502 3.69276 22.502 3.90544V7.91507C22.502 8.12775 22.5862 8.33172 22.7362 8.48211C22.8861 8.6325 23.0895 8.71699 23.3016 8.71699C23.5137 8.71699 23.7171 8.6325 23.867 8.48211C24.017 8.33172 24.1012 8.12775 24.1012 7.91507V3.90544Z" fill="var(--path-color-contrast, var(--hbr-color-neutral-contrast-icon, #F7F7F7))"></path>
<path d="M28.6027 0.801925C28.6027 0.589241 28.5184 0.385269 28.3685 0.234878C28.2185 0.0844883 28.0151 0 27.8031 0C27.591 0 27.3876 0.0844883 27.2376 0.234878C27.0877 0.385269 27.0034 0.589241 27.0034 0.801925V9.51885C27.0034 9.73153 27.0877 9.93551 27.2376 10.0859C27.3876 10.2363 27.591 10.3208 27.8031 10.3208C28.0151 10.3208 28.2185 10.2363 28.3685 10.0859C28.5184 9.93551 28.6027 9.73153 28.6027 9.51885V0.801925Z" fill="var(--path-color-contrast, var(--hbr-color-neutral-contrast-icon, #F7F7F7))"></path>
<path d="M33.0975 3.90557C33.0975 3.68651 33.0107 3.47642 32.8562 3.32151C32.7018 3.16661 32.4923 3.07959 32.2738 3.07959C32.0554 3.07959 31.8459 3.16661 31.6914 3.32151C31.537 3.47642 31.4502 3.68651 31.4502 3.90557V7.9152C31.4502 8.13426 31.537 8.34436 31.6914 8.49926C31.8459 8.65416 32.0554 8.74118 32.2738 8.74118C32.4923 8.74118 32.7018 8.65416 32.8562 8.49926C33.0107 8.34436 33.0975 8.13426 33.0975 7.9152V3.90557Z" fill="var(--path-color-contrast, var(--hbr-color-neutral-contrast-icon, #F7F7F7))"></path>
<path d="M37.5827 6.15886C37.5827 5.94617 37.4984 5.7422 37.3485 5.59181C37.1985 5.44142 36.9951 5.35693 36.783 5.35693C36.571 5.35693 36.3676 5.44142 36.2176 5.59181C36.0676 5.7422 35.9834 5.94617 35.9834 6.15886V7.883C35.9834 8.09568 36.0676 8.29965 36.2176 8.45004C36.3676 8.60043 36.571 8.68492 36.783 8.68492C36.9951 8.68492 37.1985 8.60043 37.3485 8.45004C37.4984 8.29965 37.5827 8.09568 37.5827 7.883V6.15886Z" fill="var(--path-color-contrast, var(--hbr-color-neutral-contrast-icon, #F7F7F7))"></path>
</svg>
